<svg width="1401" height="345" viewBox="0 0 1401 345" fill="none" xmlns="http://www.w3.org/2000/svg">
<path d="M461.443 140.123H438.496V128.074H461.443C465.439 128.074 468.669 127.428 471.131 126.137C473.593 124.845 475.389 123.069 476.52 120.809C477.69 118.508 478.275 115.884 478.275 112.938C478.275 110.152 477.69 107.549 476.52 105.127C475.389 102.665 473.593 100.687 471.131 99.1934C468.669 97.6999 465.439 96.9531 461.443 96.9531H443.158V173H427.961V84.8438H461.443C468.265 84.8438 474.057 86.0547 478.82 88.4766C483.624 90.8581 487.277 94.168 489.779 98.4062C492.282 102.604 493.533 107.408 493.533 112.816C493.533 118.508 492.282 123.392 489.779 127.469C487.277 131.546 483.624 134.674 478.82 136.854C474.057 139.033 468.265 140.123 461.443 140.123ZM532.283 96.5898L505.945 173H490.021L523.201 84.8438H533.373L532.283 96.5898ZM554.322 173L527.924 96.5898L526.773 84.8438H537.006L570.307 173H554.322ZM553.051 140.305V152.354H505.098V140.305H553.051ZM650.107 84.8438V173H634.91L595.373 109.85V173H580.176V84.8438H595.373L635.031 148.115V84.8438H650.107ZM693.822 173H674.992L675.113 160.951H693.822C699.271 160.951 703.833 159.76 707.506 157.379C711.219 154.997 714.005 151.587 715.861 147.146C717.758 142.706 718.707 137.419 718.707 131.283V126.5C718.707 121.737 718.162 117.519 717.072 113.846C716.023 110.173 714.449 107.085 712.35 104.582C710.291 102.079 707.748 100.182 704.721 98.8906C701.734 97.599 698.283 96.9531 694.367 96.9531H674.629V84.8438H694.367C700.22 84.8438 705.568 85.8327 710.412 87.8105C715.256 89.748 719.434 92.5534 722.945 96.2266C726.497 99.8997 729.222 104.299 731.119 109.426C733.016 114.552 733.965 120.284 733.965 126.621V131.283C733.965 137.62 733.016 143.352 731.119 148.479C729.222 153.605 726.497 158.005 722.945 161.678C719.393 165.311 715.155 168.116 710.23 170.094C705.346 172.031 699.877 173 693.822 173ZM683.408 84.8438V173H668.211V84.8438H683.408ZM774.834 173H756.004L756.125 160.951H774.834C780.283 160.951 784.844 159.76 788.518 157.379C792.231 154.997 795.016 151.587 796.873 147.146C798.77 142.706 799.719 137.419 799.719 131.283V126.5C799.719 121.737 799.174 117.519 798.084 113.846C797.035 110.173 795.46 107.085 793.361 104.582C791.303 102.079 788.76 100.182 785.732 98.8906C782.745 97.599 779.294 96.9531 775.379 96.9531H755.641V84.8438H775.379C781.232 84.8438 786.58 85.8327 791.424 87.8105C796.268 89.748 800.445 92.5534 803.957 96.2266C807.509 99.8997 810.234 104.299 812.131 109.426C814.028 114.552 814.977 120.284 814.977 126.621V131.283C814.977 137.62 814.028 143.352 812.131 148.479C810.234 153.605 807.509 158.005 803.957 161.678C800.405 165.311 796.167 168.116 791.242 170.094C786.358 172.031 780.889 173 774.834 173ZM764.42 84.8438V173H749.223V84.8438H764.42ZM863.232 96.5898L836.895 173H820.971L854.15 84.8438H864.322L863.232 96.5898ZM885.271 173L858.873 96.5898L857.723 84.8438H867.955L901.256 173H885.271ZM884 140.305V152.354H836.047V140.305H884ZM997.223 160.951V173H952.963V160.951H997.223ZM957.201 84.8438V173H942.004V84.8438H957.201ZM1044.45 159.861V128.619C1044.45 126.278 1044.03 124.26 1043.18 122.564C1042.33 120.869 1041.04 119.557 1039.3 118.629C1037.61 117.701 1035.47 117.236 1032.88 117.236C1030.5 117.236 1028.44 117.64 1026.71 118.447C1024.97 119.255 1023.62 120.344 1022.65 121.717C1021.68 123.089 1021.2 124.643 1021.2 126.379H1006.67C1006.67 123.796 1007.29 121.293 1008.54 118.871C1009.8 116.449 1011.61 114.29 1013.99 112.393C1016.38 110.495 1019.22 109.002 1022.53 107.912C1025.84 106.822 1029.55 106.277 1033.67 106.277C1038.6 106.277 1042.96 107.105 1046.75 108.76C1050.58 110.415 1053.59 112.917 1055.77 116.268C1057.99 119.577 1059.1 123.735 1059.1 128.74V157.863C1059.1 160.85 1059.3 163.535 1059.71 165.916C1060.15 168.257 1060.78 170.296 1061.58 172.031V173H1046.63C1045.94 171.426 1045.4 169.428 1044.99 167.006C1044.63 164.544 1044.45 162.162 1044.45 159.861ZM1046.57 133.16L1046.69 142.182H1036.21C1033.51 142.182 1031.13 142.444 1029.07 142.969C1027.01 143.453 1025.3 144.18 1023.92 145.148C1022.55 146.117 1021.52 147.288 1020.84 148.66C1020.15 150.033 1019.81 151.587 1019.81 153.322C1019.81 155.058 1020.21 156.652 1021.02 158.105C1021.82 159.518 1023 160.628 1024.53 161.436C1026.1 162.243 1028 162.646 1030.22 162.646C1033.21 162.646 1035.81 162.041 1038.03 160.83C1040.29 159.579 1042.07 158.065 1043.36 156.289C1044.65 154.473 1045.34 152.757 1045.42 151.143L1050.14 157.621C1049.66 159.276 1048.83 161.052 1047.66 162.949C1046.49 164.846 1044.95 166.663 1043.06 168.398C1041.2 170.094 1038.96 171.486 1036.34 172.576C1033.75 173.666 1030.77 174.211 1027.38 174.211C1023.1 174.211 1019.28 173.363 1015.93 171.668C1012.58 169.932 1009.96 167.611 1008.06 164.705C1006.16 161.758 1005.21 158.428 1005.21 154.715C1005.21 151.243 1005.86 148.176 1007.15 145.512C1008.48 142.807 1010.42 140.547 1012.96 138.73C1015.55 136.914 1018.7 135.542 1022.41 134.613C1026.12 133.645 1030.36 133.16 1035.12 133.16H1046.57ZM1074.42 80H1089.01V159.014L1087.62 173H1074.42V80ZM1131.76 139.639V140.91C1131.76 145.754 1131.21 150.214 1130.12 154.291C1129.07 158.327 1127.46 161.839 1125.28 164.826C1123.14 167.813 1120.48 170.134 1117.29 171.789C1114.14 173.404 1110.49 174.211 1106.33 174.211C1102.25 174.211 1098.7 173.444 1095.67 171.91C1092.64 170.376 1090.1 168.197 1088.04 165.371C1086.02 162.546 1084.39 159.175 1083.14 155.26C1081.89 151.344 1081 147.025 1080.47 142.303V138.246C1081 133.483 1081.89 129.164 1083.14 125.289C1084.39 121.374 1086.02 118.003 1088.04 115.178C1090.1 112.312 1092.62 110.112 1095.61 108.578C1098.64 107.044 1102.17 106.277 1106.21 106.277C1110.4 106.277 1114.1 107.085 1117.29 108.699C1120.52 110.314 1123.2 112.615 1125.34 115.602C1127.48 118.548 1129.07 122.06 1130.12 126.137C1131.21 130.214 1131.76 134.714 1131.76 139.639ZM1117.17 140.91V139.639C1117.17 136.692 1116.92 133.927 1116.44 131.344C1115.96 128.72 1115.15 126.419 1114.02 124.441C1112.93 122.464 1111.43 120.91 1109.54 119.779C1107.68 118.609 1105.36 118.023 1102.57 118.023C1099.99 118.023 1097.77 118.467 1095.91 119.355C1094.06 120.243 1092.5 121.454 1091.25 122.988C1090 124.522 1089.01 126.298 1088.29 128.316C1087.6 130.335 1087.13 132.514 1086.89 134.855V145.814C1087.26 148.842 1088.02 151.627 1089.19 154.17C1090.4 156.673 1092.1 158.691 1094.28 160.225C1096.46 161.718 1099.26 162.465 1102.7 162.465C1105.4 162.465 1107.68 161.92 1109.54 160.83C1111.39 159.74 1112.87 158.227 1113.96 156.289C1115.09 154.311 1115.89 152.01 1116.38 149.387C1116.9 146.763 1117.17 143.938 1117.17 140.91Z" fill="black"/>
<path d="M439.266 216.943H428.729V214.277H439.266C441.466 214.277 443.252 213.922 444.623 213.211C446.011 212.483 447.018 211.501 447.645 210.266C448.288 209.03 448.609 207.642 448.609 206.102C448.609 204.595 448.288 203.207 447.645 201.938C447.018 200.668 446.011 199.652 444.623 198.891C443.252 198.112 441.466 197.723 439.266 197.723H429.82V232H426.697V195.031H439.266C441.974 195.031 444.251 195.497 446.096 196.428C447.958 197.359 449.363 198.654 450.311 200.312C451.258 201.971 451.732 203.884 451.732 206.051C451.732 208.319 451.258 210.274 450.311 211.916C449.363 213.541 447.966 214.785 446.121 215.648C444.276 216.512 441.991 216.943 439.266 216.943ZM461.051 209.072V232H458.029V204.527H460.975L461.051 209.072ZM470.775 204.324L470.699 207.117C470.361 207.066 470.031 207.024 469.709 206.99C469.387 206.956 469.04 206.939 468.668 206.939C467.348 206.939 466.188 207.185 465.189 207.676C464.208 208.15 463.378 208.818 462.701 209.682C462.024 210.528 461.508 211.527 461.152 212.678C460.797 213.812 460.594 215.031 460.543 216.334L459.426 216.766C459.426 214.971 459.612 213.304 459.984 211.764C460.357 210.223 460.924 208.878 461.686 207.727C462.464 206.559 463.438 205.653 464.605 205.01C465.79 204.35 467.178 204.02 468.77 204.02C469.159 204.02 469.54 204.053 469.912 204.121C470.301 204.172 470.589 204.24 470.775 204.324ZM485.654 232.508C483.86 232.508 482.21 232.178 480.703 231.518C479.214 230.857 477.91 229.926 476.793 228.725C475.693 227.523 474.838 226.101 474.229 224.459C473.636 222.8 473.34 220.989 473.34 219.025V217.934C473.34 215.818 473.653 213.905 474.279 212.195C474.906 210.486 475.769 209.021 476.869 207.803C477.969 206.584 479.222 205.653 480.627 205.01C482.049 204.35 483.538 204.02 485.096 204.02C486.839 204.02 488.388 204.333 489.742 204.959C491.096 205.568 492.23 206.44 493.145 207.574C494.076 208.691 494.778 210.02 495.252 211.561C495.726 213.084 495.963 214.768 495.963 216.613V218.467H475.168V215.877H492.941V215.521C492.908 213.981 492.594 212.542 492.002 211.205C491.426 209.851 490.563 208.751 489.412 207.904C488.261 207.058 486.822 206.635 485.096 206.635C483.809 206.635 482.624 206.906 481.541 207.447C480.475 207.989 479.552 208.768 478.773 209.783C478.012 210.782 477.419 211.975 476.996 213.363C476.59 214.734 476.387 216.258 476.387 217.934V219.025C476.387 220.549 476.607 221.971 477.047 223.291C477.504 224.594 478.147 225.745 478.977 226.744C479.823 227.743 480.822 228.521 481.973 229.08C483.124 229.639 484.393 229.918 485.781 229.918C487.406 229.918 488.845 229.622 490.098 229.029C491.35 228.42 492.476 227.464 493.475 226.16L495.379 227.633C494.786 228.513 494.042 229.326 493.145 230.07C492.264 230.815 491.206 231.408 489.971 231.848C488.735 232.288 487.296 232.508 485.654 232.508ZM519.805 226.668V193H522.852V232H520.008L519.805 226.668ZM500.736 218.543V218.01C500.736 215.877 500.982 213.956 501.473 212.246C501.964 210.52 502.666 209.047 503.58 207.828C504.511 206.592 505.628 205.653 506.932 205.01C508.235 204.35 509.708 204.02 511.35 204.02C512.958 204.02 514.38 204.282 515.615 204.807C516.851 205.331 517.909 206.085 518.789 207.066C519.686 208.048 520.406 209.216 520.947 210.57C521.506 211.924 521.912 213.431 522.166 215.09V221.869C521.963 223.426 521.59 224.857 521.049 226.16C520.507 227.447 519.788 228.572 518.891 229.537C517.993 230.485 516.91 231.221 515.641 231.746C514.388 232.254 512.941 232.508 511.299 232.508C509.674 232.508 508.21 232.169 506.906 231.492C505.603 230.815 504.494 229.859 503.58 228.623C502.666 227.37 501.964 225.889 501.473 224.18C500.982 222.47 500.736 220.591 500.736 218.543ZM503.783 218.01V218.543C503.783 220.151 503.944 221.641 504.266 223.012C504.587 224.383 505.078 225.576 505.738 226.592C506.398 227.607 507.236 228.403 508.252 228.979C509.268 229.554 510.469 229.842 511.857 229.842C513.601 229.842 515.065 229.512 516.25 228.852C517.435 228.174 518.383 227.286 519.094 226.186C519.805 225.068 520.321 223.85 520.643 222.529V214.633C520.439 213.736 520.143 212.822 519.754 211.891C519.365 210.96 518.831 210.105 518.154 209.326C517.494 208.531 516.648 207.896 515.615 207.422C514.6 206.931 513.364 206.686 511.908 206.686C510.503 206.686 509.293 206.973 508.277 207.549C507.262 208.124 506.415 208.928 505.738 209.961C505.078 210.977 504.587 212.17 504.266 213.541C503.944 214.912 503.783 216.402 503.783 218.01ZM534.227 204.527V232H531.205V204.527H534.227ZM530.672 196.58C530.672 196.005 530.85 195.522 531.205 195.133C531.577 194.727 532.085 194.523 532.729 194.523C533.372 194.523 533.88 194.727 534.252 195.133C534.641 195.522 534.836 196.005 534.836 196.58C534.836 197.139 534.641 197.621 534.252 198.027C533.88 198.417 533.372 198.611 532.729 198.611C532.085 198.611 531.577 198.417 531.205 198.027C530.85 197.621 530.672 197.139 530.672 196.58ZM552.66 229.893C553.947 229.893 555.148 229.656 556.266 229.182C557.4 228.691 558.331 227.971 559.059 227.023C559.803 226.059 560.227 224.882 560.328 223.494H563.223C563.138 225.238 562.605 226.795 561.623 228.166C560.658 229.52 559.389 230.587 557.814 231.365C556.257 232.127 554.539 232.508 552.66 232.508C550.747 232.508 549.055 232.161 547.582 231.467C546.126 230.773 544.908 229.808 543.926 228.572C542.944 227.32 542.199 225.864 541.691 224.205C541.201 222.529 540.955 220.727 540.955 218.797V217.73C540.955 215.801 541.201 214.007 541.691 212.348C542.199 210.672 542.944 209.216 543.926 207.98C544.908 206.728 546.126 205.755 547.582 205.061C549.038 204.367 550.722 204.02 552.635 204.02C554.598 204.02 556.359 204.417 557.916 205.213C559.49 206.008 560.743 207.134 561.674 208.59C562.622 210.046 563.138 211.772 563.223 213.77H560.328C560.243 212.297 559.854 211.027 559.16 209.961C558.466 208.895 557.552 208.074 556.418 207.498C555.284 206.923 554.023 206.635 552.635 206.635C551.077 206.635 549.749 206.939 548.648 207.549C547.548 208.141 546.651 208.962 545.957 210.012C545.28 211.044 544.781 212.229 544.459 213.566C544.137 214.887 543.977 216.275 543.977 217.73V218.797C543.977 220.27 544.129 221.674 544.434 223.012C544.755 224.332 545.255 225.508 545.932 226.541C546.626 227.574 547.523 228.395 548.623 229.004C549.74 229.596 551.086 229.893 552.66 229.893ZM579.727 204.527V207.016H565.965V204.527H579.727ZM571.018 197.469H574.039V225.322C574.039 226.592 574.208 227.548 574.547 228.191C574.885 228.835 575.326 229.266 575.867 229.486C576.409 229.706 576.993 229.816 577.619 229.816C578.076 229.816 578.516 229.791 578.939 229.74C579.363 229.673 579.743 229.605 580.082 229.537L580.209 232.102C579.837 232.22 579.354 232.313 578.762 232.381C578.169 232.465 577.577 232.508 576.984 232.508C575.816 232.508 574.784 232.296 573.887 231.873C572.99 231.433 572.287 230.688 571.779 229.639C571.271 228.572 571.018 227.125 571.018 225.297V197.469ZM602.807 227.074V212.906C602.807 211.603 602.536 210.477 601.994 209.529C601.452 208.581 600.657 207.854 599.607 207.346C598.558 206.838 597.263 206.584 595.723 206.584C594.301 206.584 593.031 206.838 591.914 207.346C590.814 207.837 589.942 208.505 589.299 209.352C588.673 210.181 588.359 211.104 588.359 212.119L585.312 212.094C585.312 211.061 585.566 210.062 586.074 209.098C586.582 208.133 587.301 207.27 588.232 206.508C589.163 205.746 590.272 205.145 591.559 204.705C592.862 204.248 594.292 204.02 595.85 204.02C597.813 204.02 599.54 204.35 601.029 205.01C602.536 205.67 603.712 206.66 604.559 207.98C605.405 209.301 605.828 210.96 605.828 212.957V226.236C605.828 227.184 605.896 228.166 606.031 229.182C606.184 230.197 606.395 231.035 606.666 231.695V232H603.441C603.238 231.391 603.077 230.629 602.959 229.715C602.857 228.784 602.807 227.904 602.807 227.074ZM603.518 216.004L603.568 218.34H597.602C596.044 218.34 594.648 218.484 593.412 218.771C592.193 219.042 591.161 219.449 590.314 219.99C589.468 220.515 588.816 221.15 588.359 221.895C587.919 222.639 587.699 223.486 587.699 224.434C587.699 225.415 587.945 226.312 588.436 227.125C588.943 227.938 589.654 228.589 590.568 229.08C591.499 229.554 592.6 229.791 593.869 229.791C595.562 229.791 597.051 229.478 598.338 228.852C599.641 228.225 600.716 227.404 601.562 226.389C602.409 225.373 602.976 224.264 603.264 223.062L604.584 224.814C604.364 225.661 603.958 226.533 603.365 227.43C602.79 228.31 602.036 229.139 601.105 229.918C600.174 230.68 599.074 231.306 597.805 231.797C596.552 232.271 595.13 232.508 593.539 232.508C591.745 232.508 590.179 232.169 588.842 231.492C587.521 230.815 586.489 229.893 585.744 228.725C585.016 227.54 584.652 226.202 584.652 224.713C584.652 223.359 584.94 222.148 585.516 221.082C586.091 219.999 586.921 219.085 588.004 218.34C589.104 217.578 590.424 217.003 591.965 216.613C593.522 216.207 595.266 216.004 597.195 216.004H603.518ZM613.928 193H616.975V226.668L616.771 232H613.928V193ZM636.094 218.01V218.543C636.094 220.591 635.857 222.47 635.383 224.18C634.909 225.889 634.223 227.37 633.326 228.623C632.429 229.859 631.329 230.815 630.025 231.492C628.739 232.169 627.258 232.508 625.582 232.508C623.94 232.508 622.484 232.254 621.215 231.746C619.945 231.221 618.862 230.485 617.965 229.537C617.068 228.572 616.348 227.447 615.807 226.16C615.265 224.857 614.884 223.426 614.664 221.869V215.09C614.918 213.431 615.324 211.924 615.883 210.57C616.441 209.216 617.161 208.048 618.041 207.066C618.938 206.085 620.005 205.331 621.24 204.807C622.493 204.282 623.923 204.02 625.531 204.02C627.207 204.02 628.697 204.35 630 205.01C631.32 205.653 632.429 206.592 633.326 207.828C634.223 209.047 634.909 210.52 635.383 212.246C635.857 213.956 636.094 215.877 636.094 218.01ZM633.021 218.543V218.01C633.021 216.402 632.869 214.912 632.564 213.541C632.26 212.17 631.777 210.977 631.117 209.961C630.474 208.928 629.645 208.124 628.629 207.549C627.613 206.973 626.395 206.686 624.973 206.686C623.517 206.686 622.273 206.931 621.24 207.422C620.225 207.896 619.378 208.531 618.701 209.326C618.041 210.105 617.516 210.96 617.127 211.891C616.738 212.822 616.45 213.736 616.264 214.633V222.529C616.551 223.799 617.051 224.992 617.762 226.109C618.473 227.227 619.429 228.132 620.631 228.826C621.833 229.503 623.297 229.842 625.023 229.842C626.411 229.842 627.605 229.554 628.604 228.979C629.619 228.403 630.449 227.607 631.092 226.592C631.752 225.576 632.234 224.383 632.539 223.012C632.861 221.641 633.021 220.151 633.021 218.543ZM646.199 204.527V232H643.178V204.527H646.199ZM642.645 196.58C642.645 196.005 642.822 195.522 643.178 195.133C643.55 194.727 644.058 194.523 644.701 194.523C645.344 194.523 645.852 194.727 646.225 195.133C646.614 195.522 646.809 196.005 646.809 196.58C646.809 197.139 646.614 197.621 646.225 198.027C645.852 198.417 645.344 198.611 644.701 198.611C644.058 198.611 643.55 198.417 643.178 198.027C642.822 197.621 642.645 197.139 642.645 196.58ZM657.879 193V232H654.857V193H657.879ZM669.559 204.527V232H666.537V204.527H669.559ZM666.004 196.58C666.004 196.005 666.182 195.522 666.537 195.133C666.91 194.727 667.417 194.523 668.061 194.523C668.704 194.523 669.212 194.727 669.584 195.133C669.973 195.522 670.168 196.005 670.168 196.58C670.168 197.139 669.973 197.621 669.584 198.027C669.212 198.417 668.704 198.611 668.061 198.611C667.417 198.611 666.91 198.417 666.537 198.027C666.182 197.621 666.004 197.139 666.004 196.58ZM688.246 204.527V207.016H674.484V204.527H688.246ZM679.537 197.469H682.559V225.322C682.559 226.592 682.728 227.548 683.066 228.191C683.405 228.835 683.845 229.266 684.387 229.486C684.928 229.706 685.512 229.816 686.139 229.816C686.596 229.816 687.036 229.791 687.459 229.74C687.882 229.673 688.263 229.605 688.602 229.537L688.729 232.102C688.356 232.22 687.874 232.313 687.281 232.381C686.689 232.465 686.096 232.508 685.504 232.508C684.336 232.508 683.303 232.296 682.406 231.873C681.509 231.433 680.807 230.688 680.299 229.639C679.791 228.572 679.537 227.125 679.537 225.297V197.469ZM702.77 229.258L711.326 204.527H714.602L702.973 236.418C702.736 237.044 702.431 237.738 702.059 238.5C701.703 239.262 701.229 239.99 700.637 240.684C700.061 241.395 699.333 241.97 698.453 242.41C697.59 242.867 696.532 243.096 695.279 243.096C694.958 243.096 694.543 243.053 694.035 242.969C693.544 242.901 693.189 242.833 692.969 242.766L692.943 240.201C693.13 240.252 693.4 240.294 693.756 240.328C694.111 240.362 694.357 240.379 694.492 240.379C695.592 240.379 696.515 240.193 697.26 239.82C698.021 239.448 698.656 238.889 699.164 238.145C699.672 237.417 700.12 236.503 700.51 235.402L702.77 229.258ZM694.771 204.527L703.531 228.115L704.344 231.289L702.135 232.533L691.471 204.527H694.771ZM730.369 218.695V217.857C730.369 215.86 730.657 214.015 731.232 212.322C731.808 210.63 732.629 209.165 733.695 207.93C734.779 206.694 736.074 205.738 737.58 205.061C739.087 204.367 740.762 204.02 742.607 204.02C744.469 204.02 746.154 204.367 747.66 205.061C749.167 205.738 750.462 206.694 751.545 207.93C752.628 209.165 753.458 210.63 754.033 212.322C754.609 214.015 754.896 215.86 754.896 217.857V218.695C754.896 220.693 754.609 222.538 754.033 224.23C753.458 225.906 752.628 227.362 751.545 228.598C750.479 229.833 749.192 230.798 747.686 231.492C746.179 232.169 744.503 232.508 742.658 232.508C740.796 232.508 739.112 232.169 737.605 231.492C736.099 230.798 734.804 229.833 733.721 228.598C732.637 227.362 731.808 225.906 731.232 224.23C730.657 222.538 730.369 220.693 730.369 218.695ZM733.391 217.857V218.695C733.391 220.202 733.594 221.632 734 222.986C734.406 224.324 734.999 225.517 735.777 226.566C736.556 227.599 737.521 228.411 738.672 229.004C739.823 229.596 741.152 229.893 742.658 229.893C744.148 229.893 745.46 229.596 746.594 229.004C747.745 228.411 748.71 227.599 749.488 226.566C750.267 225.517 750.851 224.324 751.24 222.986C751.646 221.632 751.85 220.202 751.85 218.695V217.857C751.85 216.368 751.646 214.954 751.24 213.617C750.851 212.28 750.258 211.087 749.463 210.037C748.684 208.988 747.719 208.158 746.568 207.549C745.417 206.939 744.097 206.635 742.607 206.635C741.118 206.635 739.798 206.939 738.646 207.549C737.512 208.158 736.548 208.988 735.752 210.037C734.973 211.087 734.381 212.28 733.975 213.617C733.585 214.954 733.391 216.368 733.391 217.857ZM766.398 232H763.377V201.125C763.377 199.246 763.699 197.663 764.342 196.377C765.002 195.09 765.933 194.117 767.135 193.457C768.354 192.797 769.801 192.467 771.477 192.467C772.001 192.467 772.543 192.501 773.102 192.568C773.66 192.619 774.202 192.729 774.727 192.898L774.498 195.463C774.075 195.344 773.643 195.268 773.203 195.234C772.78 195.184 772.281 195.158 771.705 195.158C770.605 195.158 769.657 195.395 768.861 195.869C768.066 196.326 767.456 196.995 767.033 197.875C766.61 198.755 766.398 199.839 766.398 201.125V232ZM772.949 204.527V207.016H758.832V204.527H772.949ZM801.488 204.527V207.016H787.727V204.527H801.488ZM792.779 197.469H795.801V225.322C795.801 226.592 795.97 227.548 796.309 228.191C796.647 228.835 797.087 229.266 797.629 229.486C798.171 229.706 798.755 229.816 799.381 229.816C799.838 229.816 800.278 229.791 800.701 229.74C801.124 229.673 801.505 229.605 801.844 229.537L801.971 232.102C801.598 232.22 801.116 232.313 800.523 232.381C799.931 232.465 799.339 232.508 798.746 232.508C797.578 232.508 796.546 232.296 795.648 231.873C794.751 231.433 794.049 230.688 793.541 229.639C793.033 228.572 792.779 227.125 792.779 225.297V197.469ZM810.883 193V232H807.861V193H810.883ZM810.197 216.562L808.852 215.801C808.953 214.176 809.283 212.652 809.842 211.23C810.4 209.809 811.154 208.556 812.102 207.473C813.066 206.389 814.192 205.543 815.479 204.934C816.782 204.324 818.221 204.02 819.795 204.02C821.166 204.02 822.393 204.206 823.477 204.578C824.56 204.951 825.482 205.543 826.244 206.355C827.006 207.168 827.581 208.209 827.971 209.479C828.377 210.748 828.58 212.297 828.58 214.125V232H825.533V214.1C825.533 212.204 825.271 210.723 824.746 209.656C824.221 208.573 823.477 207.803 822.512 207.346C821.547 206.889 820.404 206.66 819.084 206.66C817.628 206.66 816.35 206.982 815.25 207.625C814.167 208.251 813.253 209.072 812.508 210.088C811.78 211.087 811.221 212.161 810.832 213.312C810.443 214.447 810.231 215.53 810.197 216.562ZM847.014 232.508C845.219 232.508 843.569 232.178 842.062 231.518C840.573 230.857 839.27 229.926 838.152 228.725C837.052 227.523 836.197 226.101 835.588 224.459C834.995 222.8 834.699 220.989 834.699 219.025V217.934C834.699 215.818 835.012 213.905 835.639 212.195C836.265 210.486 837.128 209.021 838.229 207.803C839.329 206.584 840.581 205.653 841.986 205.01C843.408 204.35 844.898 204.02 846.455 204.02C848.199 204.02 849.747 204.333 851.102 204.959C852.456 205.568 853.59 206.44 854.504 207.574C855.435 208.691 856.137 210.02 856.611 211.561C857.085 213.084 857.322 214.768 857.322 216.613V218.467H836.527V215.877H854.301V215.521C854.267 213.981 853.954 212.542 853.361 211.205C852.786 209.851 851.923 208.751 850.771 207.904C849.62 207.058 848.182 206.635 846.455 206.635C845.169 206.635 843.984 206.906 842.9 207.447C841.834 207.989 840.911 208.768 840.133 209.783C839.371 210.782 838.779 211.975 838.355 213.363C837.949 214.734 837.746 216.258 837.746 217.934V219.025C837.746 220.549 837.966 221.971 838.406 223.291C838.863 224.594 839.507 225.745 840.336 226.744C841.182 227.743 842.181 228.521 843.332 229.08C844.483 229.639 845.753 229.918 847.141 229.918C848.766 229.918 850.204 229.622 851.457 229.029C852.71 228.42 853.835 227.464 854.834 226.16L856.738 227.633C856.146 228.513 855.401 229.326 854.504 230.07C853.624 230.815 852.566 231.408 851.33 231.848C850.094 232.288 848.656 232.508 847.014 232.508ZM888.857 197.24L876.061 232H872.811L886.775 195.031H889.035L888.857 197.24ZM900.486 232L887.664 197.24L887.486 195.031H889.746L903.736 232H900.486ZM898.201 218.949V221.641H878.574V218.949H898.201ZM918.438 204.527V207.016H904.676V204.527H918.438ZM909.729 197.469H912.75V225.322C912.75 226.592 912.919 227.548 913.258 228.191C913.596 228.835 914.036 229.266 914.578 229.486C915.12 229.706 915.704 229.816 916.33 229.816C916.787 229.816 917.227 229.791 917.65 229.74C918.074 229.673 918.454 229.605 918.793 229.537L918.92 232.102C918.548 232.22 918.065 232.313 917.473 232.381C916.88 232.465 916.288 232.508 915.695 232.508C914.527 232.508 913.495 232.296 912.598 231.873C911.701 231.433 910.998 230.688 910.49 229.639C909.982 228.572 909.729 227.125 909.729 225.297V197.469ZM927.68 210.215V232H924.633V204.527H927.553L927.68 210.215ZM927.121 216.562L925.648 215.801C925.75 214.176 926.055 212.652 926.562 211.23C927.087 209.809 927.815 208.556 928.746 207.473C929.677 206.389 930.794 205.543 932.098 204.934C933.401 204.324 934.882 204.02 936.541 204.02C937.878 204.02 939.089 204.206 940.172 204.578C941.272 204.934 942.203 205.501 942.965 206.279C943.743 207.041 944.344 208.04 944.768 209.275C945.191 210.511 945.402 211.992 945.402 213.719V232H942.381V213.82C942.381 211.992 942.093 210.562 941.518 209.529C940.959 208.497 940.172 207.76 939.156 207.32C938.158 206.88 936.998 206.66 935.678 206.66C934.12 206.66 932.8 206.982 931.717 207.625C930.65 208.251 929.779 209.072 929.102 210.088C928.441 211.087 927.951 212.161 927.629 213.312C927.307 214.447 927.138 215.53 927.121 216.562ZM945.377 214.176L943.346 214.227C943.43 212.889 943.735 211.611 944.26 210.393C944.801 209.174 945.538 208.09 946.469 207.143C947.4 206.178 948.508 205.416 949.795 204.857C951.098 204.299 952.562 204.02 954.188 204.02C955.609 204.02 956.879 204.214 957.996 204.604C959.113 204.976 960.053 205.577 960.814 206.406C961.593 207.219 962.186 208.26 962.592 209.529C962.998 210.799 963.201 212.322 963.201 214.1V232H960.154V214.074C960.154 212.128 959.867 210.621 959.291 209.555C958.732 208.471 957.954 207.718 956.955 207.295C955.956 206.872 954.788 206.66 953.451 206.66C952.131 206.677 950.971 206.923 949.973 207.396C948.974 207.854 948.136 208.463 947.459 209.225C946.799 209.969 946.291 210.773 945.936 211.637C945.597 212.5 945.411 213.346 945.377 214.176ZM969.244 218.695V217.857C969.244 215.86 969.532 214.015 970.107 212.322C970.683 210.63 971.504 209.165 972.57 207.93C973.654 206.694 974.949 205.738 976.455 205.061C977.962 204.367 979.637 204.02 981.482 204.02C983.344 204.02 985.029 204.367 986.535 205.061C988.042 205.738 989.337 206.694 990.42 207.93C991.503 209.165 992.333 210.63 992.908 212.322C993.484 214.015 993.771 215.86 993.771 217.857V218.695C993.771 220.693 993.484 222.538 992.908 224.23C992.333 225.906 991.503 227.362 990.42 228.598C989.354 229.833 988.067 230.798 986.561 231.492C985.054 232.169 983.378 232.508 981.533 232.508C979.671 232.508 977.987 232.169 976.48 231.492C974.974 230.798 973.679 229.833 972.596 228.598C971.512 227.362 970.683 225.906 970.107 224.23C969.532 222.538 969.244 220.693 969.244 218.695ZM972.266 217.857V218.695C972.266 220.202 972.469 221.632 972.875 222.986C973.281 224.324 973.874 225.517 974.652 226.566C975.431 227.599 976.396 228.411 977.547 229.004C978.698 229.596 980.027 229.893 981.533 229.893C983.023 229.893 984.335 229.596 985.469 229.004C986.62 228.411 987.585 227.599 988.363 226.566C989.142 225.517 989.726 224.324 990.115 222.986C990.521 221.632 990.725 220.202 990.725 218.695V217.857C990.725 216.368 990.521 214.954 990.115 213.617C989.726 212.28 989.133 211.087 988.338 210.037C987.559 208.988 986.594 208.158 985.443 207.549C984.292 206.939 982.972 206.635 981.482 206.635C979.993 206.635 978.673 206.939 977.521 207.549C976.387 208.158 975.423 208.988 974.627 210.037C973.848 211.087 973.256 212.28 972.85 213.617C972.46 214.954 972.266 216.368 972.266 217.857ZM1016.52 224.992C1016.52 224.247 1016.34 223.511 1015.96 222.783C1015.59 222.055 1014.87 221.387 1013.8 220.777C1012.76 220.168 1011.21 219.652 1009.16 219.229C1007.63 218.89 1006.27 218.509 1005.07 218.086C1003.89 217.663 1002.89 217.155 1002.07 216.562C1001.26 215.97 1000.64 215.259 1000.22 214.43C999.798 213.6 999.586 212.618 999.586 211.484C999.586 210.469 999.806 209.512 1000.25 208.615C1000.7 207.701 1001.35 206.906 1002.18 206.229C1003.02 205.535 1004.04 204.993 1005.22 204.604C1006.42 204.214 1007.77 204.02 1009.26 204.02C1011.38 204.02 1013.19 204.383 1014.69 205.111C1016.22 205.822 1017.38 206.796 1018.17 208.031C1018.98 209.267 1019.39 210.663 1019.39 212.221H1016.37C1016.37 211.273 1016.09 210.376 1015.53 209.529C1014.99 208.683 1014.19 207.989 1013.12 207.447C1012.07 206.906 1010.78 206.635 1009.26 206.635C1007.69 206.635 1006.41 206.872 1005.43 207.346C1004.44 207.82 1003.72 208.421 1003.27 209.148C1002.83 209.876 1002.61 210.63 1002.61 211.408C1002.61 212.018 1002.7 212.576 1002.89 213.084C1003.09 213.575 1003.45 214.032 1003.95 214.455C1004.48 214.878 1005.22 215.276 1006.19 215.648C1007.15 216.021 1008.4 216.385 1009.95 216.74C1012.16 217.231 1013.97 217.832 1015.38 218.543C1016.8 219.237 1017.85 220.1 1018.53 221.133C1019.2 222.148 1019.54 223.384 1019.54 224.84C1019.54 225.974 1019.31 227.015 1018.83 227.963C1018.36 228.894 1017.67 229.698 1016.78 230.375C1015.9 231.052 1014.83 231.577 1013.58 231.949C1012.34 232.322 1010.95 232.508 1009.41 232.508C1007.09 232.508 1005.13 232.127 1003.52 231.365C1001.93 230.587 1000.72 229.571 999.891 228.318C999.078 227.049 998.672 225.703 998.672 224.281H1001.69C1001.79 225.703 1002.24 226.829 1003.04 227.658C1003.83 228.471 1004.81 229.046 1005.96 229.385C1007.13 229.723 1008.28 229.893 1009.41 229.893C1010.97 229.893 1012.27 229.664 1013.32 229.207C1014.37 228.75 1015.17 228.149 1015.71 227.404C1016.25 226.66 1016.52 225.855 1016.52 224.992ZM1029.42 209.809V242.562H1026.37V204.527H1029.22L1029.42 209.809ZM1048.51 218.01V218.543C1048.51 220.591 1048.28 222.47 1047.8 224.18C1047.33 225.889 1046.64 227.37 1045.75 228.623C1044.87 229.859 1043.77 230.815 1042.47 231.492C1041.17 232.169 1039.69 232.508 1038.03 232.508C1036.39 232.508 1034.92 232.254 1033.63 231.746C1032.35 231.238 1031.24 230.519 1030.31 229.588C1029.39 228.64 1028.66 227.54 1028.1 226.287C1027.56 225.018 1027.18 223.63 1026.96 222.123V215.09C1027.21 213.431 1027.63 211.924 1028.2 210.57C1028.78 209.216 1029.51 208.048 1030.41 207.066C1031.32 206.085 1032.41 205.331 1033.66 204.807C1034.91 204.282 1036.34 204.02 1037.95 204.02C1039.63 204.02 1041.12 204.35 1042.42 205.01C1043.74 205.653 1044.85 206.592 1045.75 207.828C1046.66 209.047 1047.35 210.52 1047.8 212.246C1048.28 213.956 1048.51 215.877 1048.51 218.01ZM1045.47 218.543V218.01C1045.47 216.402 1045.3 214.912 1044.96 213.541C1044.64 212.17 1044.14 210.977 1043.46 209.961C1042.8 208.928 1041.95 208.124 1040.92 207.549C1039.91 206.973 1038.7 206.686 1037.29 206.686C1035.84 206.686 1034.59 206.931 1033.56 207.422C1032.54 207.896 1031.7 208.531 1031.02 209.326C1030.34 210.105 1029.81 210.96 1029.42 211.891C1029.03 212.822 1028.74 213.736 1028.56 214.633V222.732C1028.88 224.019 1029.39 225.212 1030.11 226.312C1030.82 227.396 1031.76 228.268 1032.95 228.928C1034.15 229.571 1035.62 229.893 1037.34 229.893C1038.73 229.893 1039.93 229.605 1040.95 229.029C1041.96 228.454 1042.8 227.65 1043.46 226.617C1044.14 225.585 1044.64 224.383 1044.96 223.012C1045.3 221.641 1045.47 220.151 1045.47 218.543ZM1058.29 193V232H1055.27V193H1058.29ZM1057.6 216.562L1056.26 215.801C1056.36 214.176 1056.69 212.652 1057.25 211.23C1057.81 209.809 1058.56 208.556 1059.51 207.473C1060.47 206.389 1061.6 205.543 1062.88 204.934C1064.19 204.324 1065.63 204.02 1067.2 204.02C1068.57 204.02 1069.8 204.206 1070.88 204.578C1071.97 204.951 1072.89 205.543 1073.65 206.355C1074.41 207.168 1074.99 208.209 1075.38 209.479C1075.78 210.748 1075.99 212.297 1075.99 214.125V232H1072.94V214.1C1072.94 212.204 1072.68 210.723 1072.15 209.656C1071.63 208.573 1070.88 207.803 1069.92 207.346C1068.95 206.889 1067.81 206.66 1066.49 206.66C1065.03 206.66 1063.76 206.982 1062.66 207.625C1061.57 208.251 1060.66 209.072 1059.91 210.088C1059.19 211.087 1058.63 212.161 1058.24 213.312C1057.85 214.447 1057.64 215.53 1057.6 216.562ZM1094.42 232.508C1092.63 232.508 1090.98 232.178 1089.47 231.518C1087.98 230.857 1086.68 229.926 1085.56 228.725C1084.46 227.523 1083.6 226.101 1082.99 224.459C1082.4 222.8 1082.11 220.989 1082.11 219.025V217.934C1082.11 215.818 1082.42 213.905 1083.04 212.195C1083.67 210.486 1084.53 209.021 1085.63 207.803C1086.74 206.584 1087.99 205.653 1089.39 205.01C1090.81 204.35 1092.3 204.02 1093.86 204.02C1095.6 204.02 1097.15 204.333 1098.51 204.959C1099.86 205.568 1101 206.44 1101.91 207.574C1102.84 208.691 1103.54 210.02 1104.02 211.561C1104.49 213.084 1104.73 214.768 1104.73 216.613V218.467H1083.93V215.877H1101.71V215.521C1101.67 213.981 1101.36 212.542 1100.77 211.205C1100.19 209.851 1099.33 208.751 1098.18 207.904C1097.03 207.058 1095.59 206.635 1093.86 206.635C1092.57 206.635 1091.39 206.906 1090.31 207.447C1089.24 207.989 1088.32 208.768 1087.54 209.783C1086.78 210.782 1086.18 211.975 1085.76 213.363C1085.36 214.734 1085.15 216.258 1085.15 217.934V219.025C1085.15 220.549 1085.37 221.971 1085.81 223.291C1086.27 224.594 1086.91 225.745 1087.74 226.744C1088.59 227.743 1089.59 228.521 1090.74 229.08C1091.89 229.639 1093.16 229.918 1094.55 229.918C1096.17 229.918 1097.61 229.622 1098.86 229.029C1100.12 228.42 1101.24 227.464 1102.24 226.16L1104.14 227.633C1103.55 228.513 1102.81 229.326 1101.91 230.07C1101.03 230.815 1099.97 231.408 1098.74 231.848C1097.5 232.288 1096.06 232.508 1094.42 232.508ZM1113.74 209.072V232H1110.72V204.527H1113.67L1113.74 209.072ZM1123.47 204.324L1123.39 207.117C1123.05 207.066 1122.72 207.024 1122.4 206.99C1122.08 206.956 1121.73 206.939 1121.36 206.939C1120.04 206.939 1118.88 207.185 1117.88 207.676C1116.9 208.15 1116.07 208.818 1115.39 209.682C1114.72 210.528 1114.2 211.527 1113.84 212.678C1113.49 213.812 1113.29 215.031 1113.23 216.334L1112.12 216.766C1112.12 214.971 1112.3 213.304 1112.68 211.764C1113.05 210.223 1113.62 208.878 1114.38 207.727C1115.16 206.559 1116.13 205.653 1117.3 205.01C1118.48 204.35 1119.87 204.02 1121.46 204.02C1121.85 204.02 1122.23 204.053 1122.6 204.121C1122.99 204.172 1123.28 204.24 1123.47 204.324ZM1138.35 232.508C1136.55 232.508 1134.9 232.178 1133.39 231.518C1131.9 230.857 1130.6 229.926 1129.48 228.725C1128.38 227.523 1127.53 226.101 1126.92 224.459C1126.33 222.8 1126.03 220.989 1126.03 219.025V217.934C1126.03 215.818 1126.34 213.905 1126.97 212.195C1127.6 210.486 1128.46 209.021 1129.56 207.803C1130.66 206.584 1131.91 205.653 1133.32 205.01C1134.74 204.35 1136.23 204.02 1137.79 204.02C1139.53 204.02 1141.08 204.333 1142.43 204.959C1143.79 205.568 1144.92 206.44 1145.84 207.574C1146.77 208.691 1147.47 210.02 1147.94 211.561C1148.42 213.084 1148.65 214.768 1148.65 216.613V218.467H1127.86V215.877H1145.63V215.521C1145.6 213.981 1145.29 212.542 1144.69 211.205C1144.12 209.851 1143.25 208.751 1142.1 207.904C1140.95 207.058 1139.51 206.635 1137.79 206.635C1136.5 206.635 1135.32 206.906 1134.23 207.447C1133.17 207.989 1132.24 208.768 1131.46 209.783C1130.7 210.782 1130.11 211.975 1129.69 213.363C1129.28 214.734 1129.08 216.258 1129.08 217.934V219.025C1129.08 220.549 1129.3 221.971 1129.74 223.291C1130.2 224.594 1130.84 225.745 1131.67 226.744C1132.51 227.743 1133.51 228.521 1134.66 229.08C1135.82 229.639 1137.08 229.918 1138.47 229.918C1140.1 229.918 1141.54 229.622 1142.79 229.029C1144.04 228.42 1145.17 227.464 1146.17 226.16L1148.07 227.633C1147.48 228.513 1146.73 229.326 1145.84 230.07C1144.96 230.815 1143.9 231.408 1142.66 231.848C1141.43 232.288 1139.99 232.508 1138.35 232.508ZM1157.57 227.201V230.756C1157.57 232.313 1157.24 233.811 1156.6 235.25C1155.96 236.706 1155.09 237.933 1153.99 238.932L1152.21 237.611C1152.73 236.9 1153.17 236.189 1153.53 235.479C1153.88 234.785 1154.15 234.057 1154.32 233.295C1154.5 232.533 1154.6 231.712 1154.6 230.832V227.201H1157.57ZM454.221 256.031V293H451.072L429.82 261.414V293H426.697V256.031H429.82L451.123 287.617V256.031H454.221ZM461.279 279.695V278.857C461.279 276.86 461.567 275.015 462.143 273.322C462.718 271.63 463.539 270.165 464.605 268.93C465.689 267.694 466.984 266.738 468.49 266.061C469.997 265.367 471.673 265.02 473.518 265.02C475.38 265.02 477.064 265.367 478.57 266.061C480.077 266.738 481.372 267.694 482.455 268.93C483.538 270.165 484.368 271.63 484.943 273.322C485.519 275.015 485.807 276.86 485.807 278.857V279.695C485.807 281.693 485.519 283.538 484.943 285.23C484.368 286.906 483.538 288.362 482.455 289.598C481.389 290.833 480.102 291.798 478.596 292.492C477.089 293.169 475.413 293.508 473.568 293.508C471.706 293.508 470.022 293.169 468.516 292.492C467.009 291.798 465.714 290.833 464.631 289.598C463.548 288.362 462.718 286.906 462.143 285.23C461.567 283.538 461.279 281.693 461.279 279.695ZM464.301 278.857V279.695C464.301 281.202 464.504 282.632 464.91 283.986C465.316 285.324 465.909 286.517 466.688 287.566C467.466 288.599 468.431 289.411 469.582 290.004C470.733 290.596 472.062 290.893 473.568 290.893C475.058 290.893 476.37 290.596 477.504 290.004C478.655 289.411 479.62 288.599 480.398 287.566C481.177 286.517 481.761 285.324 482.15 283.986C482.557 282.632 482.76 281.202 482.76 279.695V278.857C482.76 277.368 482.557 275.954 482.15 274.617C481.761 273.28 481.169 272.087 480.373 271.037C479.594 269.988 478.63 269.158 477.479 268.549C476.327 267.939 475.007 267.635 473.518 267.635C472.028 267.635 470.708 267.939 469.557 268.549C468.423 269.158 467.458 269.988 466.662 271.037C465.883 272.087 465.291 273.28 464.885 274.617C464.495 275.954 464.301 277.368 464.301 278.857ZM495.125 271.393V293H492.104V265.527H494.998L495.125 271.393ZM494.439 277.562L493.094 276.801C493.195 275.176 493.525 273.652 494.084 272.23C494.643 270.809 495.396 269.556 496.344 268.473C497.309 267.389 498.434 266.543 499.721 265.934C501.024 265.324 502.463 265.02 504.037 265.02C505.408 265.02 506.635 265.206 507.719 265.578C508.802 265.951 509.725 266.543 510.486 267.355C511.248 268.168 511.824 269.209 512.213 270.479C512.619 271.748 512.822 273.297 512.822 275.125V293H509.775V275.1C509.775 273.204 509.513 271.723 508.988 270.656C508.464 269.573 507.719 268.803 506.754 268.346C505.789 267.889 504.646 267.66 503.326 267.66C501.87 267.66 500.592 267.982 499.492 268.625C498.409 269.251 497.495 270.072 496.75 271.088C496.022 272.087 495.464 273.161 495.074 274.312C494.685 275.447 494.473 276.53 494.439 277.562ZM524.07 254V293H521.049V254H524.07ZM535.75 265.527V293H532.729V265.527H535.75ZM532.195 257.58C532.195 257.005 532.373 256.522 532.729 256.133C533.101 255.727 533.609 255.523 534.252 255.523C534.895 255.523 535.403 255.727 535.775 256.133C536.165 256.522 536.359 257.005 536.359 257.58C536.359 258.139 536.165 258.621 535.775 259.027C535.403 259.417 534.895 259.611 534.252 259.611C533.609 259.611 533.101 259.417 532.729 259.027C532.373 258.621 532.195 258.139 532.195 257.58ZM547.074 271.393V293H544.053V265.527H546.947L547.074 271.393ZM546.389 277.562L545.043 276.801C545.145 275.176 545.475 273.652 546.033 272.23C546.592 270.809 547.345 269.556 548.293 268.473C549.258 267.389 550.383 266.543 551.67 265.934C552.973 265.324 554.412 265.02 555.986 265.02C557.357 265.02 558.585 265.206 559.668 265.578C560.751 265.951 561.674 266.543 562.436 267.355C563.197 268.168 563.773 269.209 564.162 270.479C564.568 271.748 564.771 273.297 564.771 275.125V293H561.725V275.1C561.725 273.204 561.462 271.723 560.938 270.656C560.413 269.573 559.668 268.803 558.703 268.346C557.738 267.889 556.596 267.66 555.275 267.66C553.82 267.66 552.542 267.982 551.441 268.625C550.358 269.251 549.444 270.072 548.699 271.088C547.971 272.087 547.413 273.161 547.023 274.312C546.634 275.447 546.423 276.53 546.389 277.562ZM583.256 293.508C581.462 293.508 579.811 293.178 578.305 292.518C576.815 291.857 575.512 290.926 574.395 289.725C573.294 288.523 572.439 287.101 571.83 285.459C571.238 283.8 570.941 281.989 570.941 280.025V278.934C570.941 276.818 571.255 274.905 571.881 273.195C572.507 271.486 573.37 270.021 574.471 268.803C575.571 267.584 576.824 266.653 578.229 266.01C579.65 265.35 581.14 265.02 582.697 265.02C584.441 265.02 585.99 265.333 587.344 265.959C588.698 266.568 589.832 267.44 590.746 268.574C591.677 269.691 592.38 271.02 592.854 272.561C593.327 274.084 593.564 275.768 593.564 277.613V279.467H572.77V276.877H590.543V276.521C590.509 274.981 590.196 273.542 589.604 272.205C589.028 270.851 588.165 269.751 587.014 268.904C585.863 268.058 584.424 267.635 582.697 267.635C581.411 267.635 580.226 267.906 579.143 268.447C578.076 268.989 577.154 269.768 576.375 270.783C575.613 271.782 575.021 272.975 574.598 274.363C574.191 275.734 573.988 277.258 573.988 278.934V280.025C573.988 281.549 574.208 282.971 574.648 284.291C575.105 285.594 575.749 286.745 576.578 287.744C577.424 288.743 578.423 289.521 579.574 290.08C580.725 290.639 581.995 290.918 583.383 290.918C585.008 290.918 586.447 290.622 587.699 290.029C588.952 289.42 590.077 288.464 591.076 287.16L592.98 288.633C592.388 289.513 591.643 290.326 590.746 291.07C589.866 291.815 588.808 292.408 587.572 292.848C586.337 293.288 584.898 293.508 583.256 293.508ZM616.264 288.074V273.906C616.264 272.603 615.993 271.477 615.451 270.529C614.91 269.581 614.114 268.854 613.064 268.346C612.015 267.838 610.72 267.584 609.18 267.584C607.758 267.584 606.488 267.838 605.371 268.346C604.271 268.837 603.399 269.505 602.756 270.352C602.13 271.181 601.816 272.104 601.816 273.119L598.77 273.094C598.77 272.061 599.023 271.062 599.531 270.098C600.039 269.133 600.758 268.27 601.689 267.508C602.62 266.746 603.729 266.145 605.016 265.705C606.319 265.248 607.749 265.02 609.307 265.02C611.27 265.02 612.997 265.35 614.486 266.01C615.993 266.67 617.169 267.66 618.016 268.98C618.862 270.301 619.285 271.96 619.285 273.957V287.236C619.285 288.184 619.353 289.166 619.488 290.182C619.641 291.197 619.852 292.035 620.123 292.695V293H616.898C616.695 292.391 616.535 291.629 616.416 290.715C616.314 289.784 616.264 288.904 616.264 288.074ZM616.975 277.004L617.025 279.34H611.059C609.501 279.34 608.105 279.484 606.869 279.771C605.65 280.042 604.618 280.449 603.771 280.99C602.925 281.515 602.273 282.15 601.816 282.895C601.376 283.639 601.156 284.486 601.156 285.434C601.156 286.415 601.402 287.312 601.893 288.125C602.4 288.938 603.111 289.589 604.025 290.08C604.956 290.554 606.057 290.791 607.326 290.791C609.019 290.791 610.508 290.478 611.795 289.852C613.098 289.225 614.173 288.404 615.02 287.389C615.866 286.373 616.433 285.264 616.721 284.062L618.041 285.814C617.821 286.661 617.415 287.533 616.822 288.43C616.247 289.31 615.493 290.139 614.562 290.918C613.632 291.68 612.531 292.306 611.262 292.797C610.009 293.271 608.587 293.508 606.996 293.508C605.202 293.508 603.636 293.169 602.299 292.492C600.979 291.815 599.946 290.893 599.201 289.725C598.473 288.54 598.109 287.202 598.109 285.713C598.109 284.359 598.397 283.148 598.973 282.082C599.548 280.999 600.378 280.085 601.461 279.34C602.561 278.578 603.882 278.003 605.422 277.613C606.979 277.207 608.723 277.004 610.652 277.004H616.975ZM630.457 270.072V293H627.436V265.527H630.381L630.457 270.072ZM640.182 265.324L640.105 268.117C639.767 268.066 639.437 268.024 639.115 267.99C638.794 267.956 638.447 267.939 638.074 267.939C636.754 267.939 635.594 268.185 634.596 268.676C633.614 269.15 632.785 269.818 632.107 270.682C631.43 271.528 630.914 272.527 630.559 273.678C630.203 274.812 630 276.031 629.949 277.334L628.832 277.766C628.832 275.971 629.018 274.304 629.391 272.764C629.763 271.223 630.33 269.878 631.092 268.727C631.87 267.559 632.844 266.653 634.012 266.01C635.197 265.35 636.585 265.02 638.176 265.02C638.565 265.02 638.946 265.053 639.318 265.121C639.708 265.172 639.995 265.24 640.182 265.324ZM668.467 293H660.088L660.139 290.334H668.467C671.124 290.334 673.41 289.742 675.322 288.557C677.252 287.355 678.742 285.696 679.791 283.58C680.84 281.464 681.365 279.01 681.365 276.217V272.764C681.365 270.631 681.061 268.701 680.451 266.975C679.859 265.248 679.004 263.775 677.887 262.557C676.77 261.321 675.432 260.373 673.875 259.713C672.335 259.053 670.608 258.723 668.695 258.723H659.936V256.031H668.695C670.997 256.031 673.105 256.429 675.018 257.225C676.947 258.003 678.615 259.137 680.02 260.627C681.441 262.1 682.533 263.868 683.295 265.934C684.074 267.999 684.463 270.301 684.463 272.84V276.217C684.463 278.756 684.074 281.058 683.295 283.123C682.533 285.188 681.441 286.957 680.02 288.43C678.598 289.902 676.913 291.036 674.967 291.832C673.02 292.611 670.854 293 668.467 293ZM661.484 256.031V293H658.361V256.031H661.484ZM699.875 290.258L708.432 265.527H711.707L700.078 297.418C699.841 298.044 699.536 298.738 699.164 299.5C698.809 300.262 698.335 300.99 697.742 301.684C697.167 302.395 696.439 302.97 695.559 303.41C694.695 303.867 693.637 304.096 692.385 304.096C692.063 304.096 691.648 304.053 691.141 303.969C690.65 303.901 690.294 303.833 690.074 303.766L690.049 301.201C690.235 301.252 690.506 301.294 690.861 301.328C691.217 301.362 691.462 301.379 691.598 301.379C692.698 301.379 693.62 301.193 694.365 300.82C695.127 300.448 695.762 299.889 696.27 299.145C696.777 298.417 697.226 297.503 697.615 296.402L699.875 290.258ZM691.877 265.527L700.637 289.115L701.449 292.289L699.24 293.533L688.576 265.527H691.877ZM719.477 271.393V293H716.455V265.527H719.35L719.477 271.393ZM718.791 277.562L717.445 276.801C717.547 275.176 717.877 273.652 718.436 272.23C718.994 270.809 719.747 269.556 720.695 268.473C721.66 267.389 722.786 266.543 724.072 265.934C725.376 265.324 726.814 265.02 728.389 265.02C729.76 265.02 730.987 265.206 732.07 265.578C733.154 265.951 734.076 266.543 734.838 267.355C735.6 268.168 736.175 269.209 736.564 270.479C736.971 271.748 737.174 273.297 737.174 275.125V293H734.127V275.1C734.127 273.204 733.865 271.723 733.34 270.656C732.815 269.573 732.07 268.803 731.105 268.346C730.141 267.889 728.998 267.66 727.678 267.66C726.222 267.66 724.944 267.982 723.844 268.625C722.76 269.251 721.846 270.072 721.102 271.088C720.374 272.087 719.815 273.161 719.426 274.312C719.036 275.447 718.825 276.53 718.791 277.562ZM761.752 288.074V273.906C761.752 272.603 761.481 271.477 760.939 270.529C760.398 269.581 759.602 268.854 758.553 268.346C757.503 267.838 756.208 267.584 754.668 267.584C753.246 267.584 751.977 267.838 750.859 268.346C749.759 268.837 748.887 269.505 748.244 270.352C747.618 271.181 747.305 272.104 747.305 273.119L744.258 273.094C744.258 272.061 744.512 271.062 745.02 270.098C745.527 269.133 746.247 268.27 747.178 267.508C748.109 266.746 749.217 266.145 750.504 265.705C751.807 265.248 753.238 265.02 754.795 265.02C756.758 265.02 758.485 265.35 759.975 266.01C761.481 266.67 762.658 267.66 763.504 268.98C764.35 270.301 764.773 271.96 764.773 273.957V287.236C764.773 288.184 764.841 289.166 764.977 290.182C765.129 291.197 765.34 292.035 765.611 292.695V293H762.387C762.184 292.391 762.023 291.629 761.904 290.715C761.803 289.784 761.752 288.904 761.752 288.074ZM762.463 277.004L762.514 279.34H756.547C754.99 279.34 753.593 279.484 752.357 279.771C751.139 280.042 750.106 280.449 749.26 280.99C748.413 281.515 747.762 282.15 747.305 282.895C746.865 283.639 746.645 284.486 746.645 285.434C746.645 286.415 746.89 287.312 747.381 288.125C747.889 288.938 748.6 289.589 749.514 290.08C750.445 290.554 751.545 290.791 752.814 290.791C754.507 290.791 755.997 290.478 757.283 289.852C758.587 289.225 759.661 288.404 760.508 287.389C761.354 286.373 761.921 285.264 762.209 284.062L763.529 285.814C763.309 286.661 762.903 287.533 762.311 288.43C761.735 289.31 760.982 290.139 760.051 290.918C759.12 291.68 758.02 292.306 756.75 292.797C755.497 293.271 754.076 293.508 752.484 293.508C750.69 293.508 749.124 293.169 747.787 292.492C746.467 291.815 745.434 290.893 744.689 289.725C743.962 288.54 743.598 287.202 743.598 285.713C743.598 284.359 743.885 283.148 744.461 282.082C745.036 280.999 745.866 280.085 746.949 279.34C748.049 278.578 749.37 278.003 750.91 277.613C752.467 277.207 754.211 277.004 756.141 277.004H762.463ZM775.793 271.215V293H772.746V265.527H775.666L775.793 271.215ZM775.234 277.562L773.762 276.801C773.863 275.176 774.168 273.652 774.676 272.23C775.201 270.809 775.928 269.556 776.859 268.473C777.79 267.389 778.908 266.543 780.211 265.934C781.514 265.324 782.995 265.02 784.654 265.02C785.992 265.02 787.202 265.206 788.285 265.578C789.385 265.934 790.316 266.501 791.078 267.279C791.857 268.041 792.458 269.04 792.881 270.275C793.304 271.511 793.516 272.992 793.516 274.719V293H790.494V274.82C790.494 272.992 790.206 271.562 789.631 270.529C789.072 269.497 788.285 268.76 787.27 268.32C786.271 267.88 785.111 267.66 783.791 267.66C782.234 267.66 780.913 267.982 779.83 268.625C778.764 269.251 777.892 270.072 777.215 271.088C776.555 272.087 776.064 273.161 775.742 274.312C775.421 275.447 775.251 276.53 775.234 277.562ZM793.49 275.176L791.459 275.227C791.544 273.889 791.848 272.611 792.373 271.393C792.915 270.174 793.651 269.09 794.582 268.143C795.513 267.178 796.622 266.416 797.908 265.857C799.212 265.299 800.676 265.02 802.301 265.02C803.723 265.02 804.992 265.214 806.109 265.604C807.227 265.976 808.166 266.577 808.928 267.406C809.706 268.219 810.299 269.26 810.705 270.529C811.111 271.799 811.314 273.322 811.314 275.1V293H808.268V275.074C808.268 273.128 807.98 271.621 807.404 270.555C806.846 269.471 806.067 268.718 805.068 268.295C804.07 267.872 802.902 267.66 801.564 267.66C800.244 267.677 799.085 267.923 798.086 268.396C797.087 268.854 796.249 269.463 795.572 270.225C794.912 270.969 794.404 271.773 794.049 272.637C793.71 273.5 793.524 274.346 793.49 275.176ZM822.41 265.527V293H819.389V265.527H822.41ZM818.855 257.58C818.855 257.005 819.033 256.522 819.389 256.133C819.761 255.727 820.269 255.523 820.912 255.523C821.555 255.523 822.063 255.727 822.436 256.133C822.825 256.522 823.02 257.005 823.02 257.58C823.02 258.139 822.825 258.621 822.436 259.027C822.063 259.417 821.555 259.611 820.912 259.611C820.269 259.611 819.761 259.417 819.389 259.027C819.033 258.621 818.855 258.139 818.855 257.58ZM840.844 290.893C842.13 290.893 843.332 290.656 844.449 290.182C845.583 289.691 846.514 288.971 847.242 288.023C847.987 287.059 848.41 285.882 848.512 284.494H851.406C851.322 286.238 850.788 287.795 849.807 289.166C848.842 290.52 847.572 291.587 845.998 292.365C844.441 293.127 842.723 293.508 840.844 293.508C838.931 293.508 837.238 293.161 835.766 292.467C834.31 291.773 833.091 290.808 832.109 289.572C831.128 288.32 830.383 286.864 829.875 285.205C829.384 283.529 829.139 281.727 829.139 279.797V278.73C829.139 276.801 829.384 275.007 829.875 273.348C830.383 271.672 831.128 270.216 832.109 268.98C833.091 267.728 834.31 266.755 835.766 266.061C837.221 265.367 838.906 265.02 840.818 265.02C842.782 265.02 844.542 265.417 846.1 266.213C847.674 267.008 848.926 268.134 849.857 269.59C850.805 271.046 851.322 272.772 851.406 274.77H848.512C848.427 273.297 848.038 272.027 847.344 270.961C846.65 269.895 845.736 269.074 844.602 268.498C843.467 267.923 842.206 267.635 840.818 267.635C839.261 267.635 837.932 267.939 836.832 268.549C835.732 269.141 834.835 269.962 834.141 271.012C833.464 272.044 832.964 273.229 832.643 274.566C832.321 275.887 832.16 277.275 832.16 278.73V279.797C832.16 281.27 832.312 282.674 832.617 284.012C832.939 285.332 833.438 286.508 834.115 287.541C834.809 288.574 835.706 289.395 836.807 290.004C837.924 290.596 839.27 290.893 840.844 290.893ZM873.979 285.992C873.979 285.247 873.792 284.511 873.42 283.783C873.048 283.055 872.328 282.387 871.262 281.777C870.212 281.168 868.663 280.652 866.615 280.229C865.092 279.89 863.729 279.509 862.527 279.086C861.342 278.663 860.344 278.155 859.531 277.562C858.719 276.97 858.101 276.259 857.678 275.43C857.255 274.6 857.043 273.618 857.043 272.484C857.043 271.469 857.263 270.512 857.703 269.615C858.16 268.701 858.803 267.906 859.633 267.229C860.479 266.535 861.495 265.993 862.68 265.604C863.882 265.214 865.227 265.02 866.717 265.02C868.833 265.02 870.644 265.383 872.15 266.111C873.674 266.822 874.833 267.796 875.629 269.031C876.441 270.267 876.848 271.663 876.848 273.221H873.826C873.826 272.273 873.547 271.376 872.988 270.529C872.447 269.683 871.643 268.989 870.576 268.447C869.527 267.906 868.24 267.635 866.717 267.635C865.143 267.635 863.865 267.872 862.883 268.346C861.901 268.82 861.182 269.421 860.725 270.148C860.285 270.876 860.064 271.63 860.064 272.408C860.064 273.018 860.158 273.576 860.344 274.084C860.547 274.575 860.902 275.032 861.41 275.455C861.935 275.878 862.68 276.276 863.645 276.648C864.609 277.021 865.862 277.385 867.402 277.74C869.62 278.231 871.431 278.832 872.836 279.543C874.258 280.237 875.307 281.1 875.984 282.133C876.661 283.148 877 284.384 877 285.84C877 286.974 876.763 288.015 876.289 288.963C875.815 289.894 875.13 290.698 874.232 291.375C873.352 292.052 872.286 292.577 871.033 292.949C869.798 293.322 868.41 293.508 866.869 293.508C864.55 293.508 862.587 293.127 860.979 292.365C859.387 291.587 858.177 290.571 857.348 289.318C856.535 288.049 856.129 286.703 856.129 285.281H859.15C859.252 286.703 859.701 287.829 860.496 288.658C861.292 289.471 862.265 290.046 863.416 290.385C864.584 290.723 865.735 290.893 866.869 290.893C868.426 290.893 869.73 290.664 870.779 290.207C871.829 289.75 872.624 289.149 873.166 288.404C873.708 287.66 873.979 286.855 873.979 285.992ZM886.801 288.201V291.756C886.801 293.313 886.479 294.811 885.836 296.25C885.193 297.706 884.321 298.933 883.221 299.932L881.443 298.611C881.968 297.9 882.408 297.189 882.764 296.479C883.119 295.785 883.382 295.057 883.551 294.295C883.737 293.533 883.83 292.712 883.83 291.832V288.201H886.801ZM923.287 288.074V273.906C923.287 272.603 923.016 271.477 922.475 270.529C921.933 269.581 921.137 268.854 920.088 268.346C919.038 267.838 917.743 267.584 916.203 267.584C914.781 267.584 913.512 267.838 912.395 268.346C911.294 268.837 910.423 269.505 909.779 270.352C909.153 271.181 908.84 272.104 908.84 273.119L905.793 273.094C905.793 272.061 906.047 271.062 906.555 270.098C907.062 269.133 907.782 268.27 908.713 267.508C909.644 266.746 910.753 266.145 912.039 265.705C913.342 265.248 914.773 265.02 916.33 265.02C918.294 265.02 920.02 265.35 921.51 266.01C923.016 266.67 924.193 267.66 925.039 268.98C925.885 270.301 926.309 271.96 926.309 273.957V287.236C926.309 288.184 926.376 289.166 926.512 290.182C926.664 291.197 926.876 292.035 927.146 292.695V293H923.922C923.719 292.391 923.558 291.629 923.439 290.715C923.338 289.784 923.287 288.904 923.287 288.074ZM923.998 277.004L924.049 279.34H918.082C916.525 279.34 915.128 279.484 913.893 279.771C912.674 280.042 911.641 280.449 910.795 280.99C909.949 281.515 909.297 282.15 908.84 282.895C908.4 283.639 908.18 284.486 908.18 285.434C908.18 286.415 908.425 287.312 908.916 288.125C909.424 288.938 910.135 289.589 911.049 290.08C911.98 290.554 913.08 290.791 914.35 290.791C916.042 290.791 917.532 290.478 918.818 289.852C920.122 289.225 921.197 288.404 922.043 287.389C922.889 286.373 923.456 285.264 923.744 284.062L925.064 285.814C924.844 286.661 924.438 287.533 923.846 288.43C923.27 289.31 922.517 290.139 921.586 290.918C920.655 291.68 919.555 292.306 918.285 292.797C917.033 293.271 915.611 293.508 914.02 293.508C912.225 293.508 910.66 293.169 909.322 292.492C908.002 291.815 906.969 290.893 906.225 289.725C905.497 288.54 905.133 287.202 905.133 285.713C905.133 284.359 905.421 283.148 905.996 282.082C906.572 280.999 907.401 280.085 908.484 279.34C909.585 278.578 910.905 278.003 912.445 277.613C914.003 277.207 915.746 277.004 917.676 277.004H923.998ZM937.48 271.393V293H934.459V265.527H937.354L937.48 271.393ZM936.795 277.562L935.449 276.801C935.551 275.176 935.881 273.652 936.439 272.23C936.998 270.809 937.751 269.556 938.699 268.473C939.664 267.389 940.79 266.543 942.076 265.934C943.38 265.324 944.818 265.02 946.393 265.02C947.764 265.02 948.991 265.206 950.074 265.578C951.158 265.951 952.08 266.543 952.842 267.355C953.604 268.168 954.179 269.209 954.568 270.479C954.975 271.748 955.178 273.297 955.178 275.125V293H952.131V275.1C952.131 273.204 951.868 271.723 951.344 270.656C950.819 269.573 950.074 268.803 949.109 268.346C948.145 267.889 947.002 267.66 945.682 267.66C944.226 267.66 942.948 267.982 941.848 268.625C940.764 269.251 939.85 270.072 939.105 271.088C938.378 272.087 937.819 273.161 937.43 274.312C937.04 275.447 936.829 276.53 936.795 277.562ZM980.898 287.668V254H983.945V293H981.102L980.898 287.668ZM961.83 279.543V279.01C961.83 276.877 962.076 274.956 962.566 273.246C963.057 271.52 963.76 270.047 964.674 268.828C965.605 267.592 966.722 266.653 968.025 266.01C969.329 265.35 970.801 265.02 972.443 265.02C974.051 265.02 975.473 265.282 976.709 265.807C977.945 266.331 979.003 267.085 979.883 268.066C980.78 269.048 981.499 270.216 982.041 271.57C982.6 272.924 983.006 274.431 983.26 276.09V282.869C983.057 284.426 982.684 285.857 982.143 287.16C981.601 288.447 980.882 289.572 979.984 290.537C979.087 291.485 978.004 292.221 976.734 292.746C975.482 293.254 974.035 293.508 972.393 293.508C970.768 293.508 969.303 293.169 968 292.492C966.697 291.815 965.588 290.859 964.674 289.623C963.76 288.37 963.057 286.889 962.566 285.18C962.076 283.47 961.83 281.591 961.83 279.543ZM964.877 279.01V279.543C964.877 281.151 965.038 282.641 965.359 284.012C965.681 285.383 966.172 286.576 966.832 287.592C967.492 288.607 968.33 289.403 969.346 289.979C970.361 290.554 971.563 290.842 972.951 290.842C974.695 290.842 976.159 290.512 977.344 289.852C978.529 289.174 979.477 288.286 980.188 287.186C980.898 286.068 981.415 284.85 981.736 283.529V275.633C981.533 274.736 981.237 273.822 980.848 272.891C980.458 271.96 979.925 271.105 979.248 270.326C978.588 269.531 977.742 268.896 976.709 268.422C975.693 267.931 974.458 267.686 973.002 267.686C971.597 267.686 970.387 267.973 969.371 268.549C968.355 269.124 967.509 269.928 966.832 270.961C966.172 271.977 965.681 273.17 965.359 274.541C965.038 275.912 964.877 277.402 964.877 279.01ZM1015.46 293H1007.08L1007.13 290.334H1015.46C1018.11 290.334 1020.4 289.742 1022.31 288.557C1024.24 287.355 1025.73 285.696 1026.78 283.58C1027.83 281.464 1028.35 279.01 1028.35 276.217V272.764C1028.35 270.631 1028.05 268.701 1027.44 266.975C1026.85 265.248 1025.99 263.775 1024.88 262.557C1023.76 261.321 1022.42 260.373 1020.86 259.713C1019.32 259.053 1017.6 258.723 1015.68 258.723H1006.92V256.031H1015.68C1017.99 256.031 1020.09 256.429 1022.01 257.225C1023.94 258.003 1025.6 259.137 1027.01 260.627C1028.43 262.1 1029.52 263.868 1030.28 265.934C1031.06 267.999 1031.45 270.301 1031.45 272.84V276.217C1031.45 278.756 1031.06 281.058 1030.28 283.123C1029.52 285.188 1028.43 286.957 1027.01 288.43C1025.59 289.902 1023.9 291.036 1021.96 291.832C1020.01 292.611 1017.84 293 1015.46 293ZM1008.47 256.031V293H1005.35V256.031H1008.47ZM1055.42 288.074V273.906C1055.42 272.603 1055.15 271.477 1054.61 270.529C1054.07 269.581 1053.27 268.854 1052.22 268.346C1051.17 267.838 1049.88 267.584 1048.34 267.584C1046.91 267.584 1045.64 267.838 1044.53 268.346C1043.43 268.837 1042.56 269.505 1041.91 270.352C1041.29 271.181 1040.97 272.104 1040.97 273.119L1037.93 273.094C1037.93 272.061 1038.18 271.062 1038.69 270.098C1039.2 269.133 1039.91 268.27 1040.85 267.508C1041.78 266.746 1042.89 266.145 1044.17 265.705C1045.48 265.248 1046.91 265.02 1048.46 265.02C1050.43 265.02 1052.15 265.35 1053.64 266.01C1055.15 266.67 1056.33 267.66 1057.17 268.98C1058.02 270.301 1058.44 271.96 1058.44 273.957V287.236C1058.44 288.184 1058.51 289.166 1058.64 290.182C1058.8 291.197 1059.01 292.035 1059.28 292.695V293H1056.05C1055.85 292.391 1055.69 291.629 1055.57 290.715C1055.47 289.784 1055.42 288.904 1055.42 288.074ZM1056.13 277.004L1056.18 279.34H1050.21C1048.66 279.34 1047.26 279.484 1046.03 279.771C1044.81 280.042 1043.77 280.449 1042.93 280.99C1042.08 281.515 1041.43 282.15 1040.97 282.895C1040.53 283.639 1040.31 284.486 1040.31 285.434C1040.31 286.415 1040.56 287.312 1041.05 288.125C1041.56 288.938 1042.27 289.589 1043.18 290.08C1044.11 290.554 1045.21 290.791 1046.48 290.791C1048.18 290.791 1049.66 290.478 1050.95 289.852C1052.25 289.225 1053.33 288.404 1054.18 287.389C1055.02 286.373 1055.59 285.264 1055.88 284.062L1057.2 285.814C1056.98 286.661 1056.57 287.533 1055.98 288.43C1055.4 289.31 1054.65 290.139 1053.72 290.918C1052.79 291.68 1051.69 292.306 1050.42 292.797C1049.17 293.271 1047.74 293.508 1046.15 293.508C1044.36 293.508 1042.79 293.169 1041.46 292.492C1040.13 291.815 1039.1 290.893 1038.36 289.725C1037.63 288.54 1037.27 287.202 1037.27 285.713C1037.27 284.359 1037.55 283.148 1038.13 282.082C1038.7 280.999 1039.53 280.085 1040.62 279.34C1041.72 278.578 1043.04 278.003 1044.58 277.613C1046.14 277.207 1047.88 277.004 1049.81 277.004H1056.13ZM1076.98 265.527V268.016H1063.21V265.527H1076.98ZM1068.27 258.469H1071.29V286.322C1071.29 287.592 1071.46 288.548 1071.8 289.191C1072.14 289.835 1072.58 290.266 1073.12 290.486C1073.66 290.706 1074.24 290.816 1074.87 290.816C1075.33 290.816 1075.77 290.791 1076.19 290.74C1076.61 290.673 1076.99 290.605 1077.33 290.537L1077.46 293.102C1077.09 293.22 1076.6 293.313 1076.01 293.381C1075.42 293.465 1074.83 293.508 1074.23 293.508C1073.07 293.508 1072.03 293.296 1071.14 292.873C1070.24 292.433 1069.54 291.688 1069.03 290.639C1068.52 289.572 1068.27 288.125 1068.27 286.297V258.469ZM1100.06 288.074V273.906C1100.06 272.603 1099.79 271.477 1099.24 270.529C1098.7 269.581 1097.91 268.854 1096.86 268.346C1095.81 267.838 1094.51 267.584 1092.97 267.584C1091.55 267.584 1090.28 267.838 1089.16 268.346C1088.06 268.837 1087.19 269.505 1086.55 270.352C1085.92 271.181 1085.61 272.104 1085.61 273.119L1082.56 273.094C1082.56 272.061 1082.82 271.062 1083.32 270.098C1083.83 269.133 1084.55 268.27 1085.48 267.508C1086.41 266.746 1087.52 266.145 1088.81 265.705C1090.11 265.248 1091.54 265.02 1093.1 265.02C1095.06 265.02 1096.79 265.35 1098.28 266.01C1099.79 266.67 1100.96 267.66 1101.81 268.98C1102.65 270.301 1103.08 271.96 1103.08 273.957V287.236C1103.08 288.184 1103.15 289.166 1103.28 290.182C1103.43 291.197 1103.65 292.035 1103.92 292.695V293H1100.69C1100.49 292.391 1100.33 291.629 1100.21 290.715C1100.11 289.784 1100.06 288.904 1100.06 288.074ZM1100.77 277.004L1100.82 279.34H1094.85C1093.29 279.34 1091.9 279.484 1090.66 279.771C1089.44 280.042 1088.41 280.449 1087.56 280.99C1086.72 281.515 1086.07 282.15 1085.61 282.895C1085.17 283.639 1084.95 284.486 1084.95 285.434C1084.95 286.415 1085.19 287.312 1085.69 288.125C1086.19 288.938 1086.9 289.589 1087.82 290.08C1088.75 290.554 1089.85 290.791 1091.12 290.791C1092.81 290.791 1094.3 290.478 1095.59 289.852C1096.89 289.225 1097.97 288.404 1098.81 287.389C1099.66 286.373 1100.23 285.264 1100.51 284.062L1101.83 285.814C1101.61 286.661 1101.21 287.533 1100.62 288.43C1100.04 289.31 1099.29 290.139 1098.36 290.918C1097.42 291.68 1096.32 292.306 1095.05 292.797C1093.8 293.271 1092.38 293.508 1090.79 293.508C1088.99 293.508 1087.43 293.169 1086.09 292.492C1084.77 291.815 1083.74 290.893 1082.99 289.725C1082.27 288.54 1081.9 287.202 1081.9 285.713C1081.9 284.359 1082.19 283.148 1082.77 282.082C1083.34 280.999 1084.17 280.085 1085.25 279.34C1086.35 278.578 1087.67 278.003 1089.21 277.613C1090.77 277.207 1092.52 277.004 1094.45 277.004H1100.77ZM1136.77 258.24L1123.97 293H1120.72L1134.69 256.031H1136.95L1136.77 258.24ZM1148.4 293L1135.58 258.24L1135.4 256.031H1137.66L1151.65 293H1148.4ZM1146.12 279.949V282.641H1126.49V279.949H1146.12ZM1172.88 285.992C1172.88 285.247 1172.69 284.511 1172.32 283.783C1171.95 283.055 1171.23 282.387 1170.16 281.777C1169.11 281.168 1167.56 280.652 1165.51 280.229C1163.99 279.89 1162.63 279.509 1161.43 279.086C1160.24 278.663 1159.24 278.155 1158.43 277.562C1157.62 276.97 1157 276.259 1156.58 275.43C1156.15 274.6 1155.94 273.618 1155.94 272.484C1155.94 271.469 1156.16 270.512 1156.6 269.615C1157.06 268.701 1157.7 267.906 1158.53 267.229C1159.38 266.535 1160.39 265.993 1161.58 265.604C1162.78 265.214 1164.13 265.02 1165.62 265.02C1167.73 265.02 1169.54 265.383 1171.05 266.111C1172.57 266.822 1173.73 267.796 1174.53 269.031C1175.34 270.267 1175.75 271.663 1175.75 273.221H1172.72C1172.72 272.273 1172.45 271.376 1171.89 270.529C1171.35 269.683 1170.54 268.989 1169.47 268.447C1168.43 267.906 1167.14 267.635 1165.62 267.635C1164.04 267.635 1162.76 267.872 1161.78 268.346C1160.8 268.82 1160.08 269.421 1159.62 270.148C1159.18 270.876 1158.96 271.63 1158.96 272.408C1158.96 273.018 1159.06 273.576 1159.24 274.084C1159.45 274.575 1159.8 275.032 1160.31 275.455C1160.83 275.878 1161.58 276.276 1162.54 276.648C1163.51 277.021 1164.76 277.385 1166.3 277.74C1168.52 278.231 1170.33 278.832 1171.73 279.543C1173.16 280.237 1174.21 281.1 1174.88 282.133C1175.56 283.148 1175.9 284.384 1175.9 285.84C1175.9 286.974 1175.66 288.015 1175.19 288.963C1174.71 289.894 1174.03 290.698 1173.13 291.375C1172.25 292.052 1171.18 292.577 1169.93 292.949C1168.7 293.322 1167.31 293.508 1165.77 293.508C1163.45 293.508 1161.49 293.127 1159.88 292.365C1158.29 291.587 1157.08 290.571 1156.25 289.318C1155.43 288.049 1155.03 286.703 1155.03 285.281H1158.05C1158.15 286.703 1158.6 287.829 1159.39 288.658C1160.19 289.471 1161.16 290.046 1162.31 290.385C1163.48 290.723 1164.63 290.893 1165.77 290.893C1167.32 290.893 1168.63 290.664 1169.68 290.207C1170.73 289.75 1171.52 289.149 1172.06 288.404C1172.61 287.66 1172.88 286.855 1172.88 285.992ZM1199.23 285.992C1199.23 285.247 1199.05 284.511 1198.67 283.783C1198.3 283.055 1197.58 282.387 1196.52 281.777C1195.47 281.168 1193.92 280.652 1191.87 280.229C1190.35 279.89 1188.98 279.509 1187.78 279.086C1186.6 278.663 1185.6 278.155 1184.79 277.562C1183.97 276.97 1183.35 276.259 1182.93 275.43C1182.51 274.6 1182.3 273.618 1182.3 272.484C1182.3 271.469 1182.52 270.512 1182.96 269.615C1183.41 268.701 1184.06 267.906 1184.89 267.229C1185.73 266.535 1186.75 265.993 1187.93 265.604C1189.14 265.214 1190.48 265.02 1191.97 265.02C1194.09 265.02 1195.9 265.383 1197.4 266.111C1198.93 266.822 1200.09 267.796 1200.88 269.031C1201.7 270.267 1202.1 271.663 1202.1 273.221H1199.08C1199.08 272.273 1198.8 271.376 1198.24 270.529C1197.7 269.683 1196.9 268.989 1195.83 268.447C1194.78 267.906 1193.49 267.635 1191.97 267.635C1190.4 267.635 1189.12 267.872 1188.14 268.346C1187.15 268.82 1186.44 269.421 1185.98 270.148C1185.54 270.876 1185.32 271.63 1185.32 272.408C1185.32 273.018 1185.41 273.576 1185.6 274.084C1185.8 274.575 1186.16 275.032 1186.66 275.455C1187.19 275.878 1187.93 276.276 1188.9 276.648C1189.86 277.021 1191.12 277.385 1192.66 277.74C1194.87 278.231 1196.68 278.832 1198.09 279.543C1199.51 280.237 1200.56 281.1 1201.24 282.133C1201.92 283.148 1202.25 284.384 1202.25 285.84C1202.25 286.974 1202.02 288.015 1201.54 288.963C1201.07 289.894 1200.38 290.698 1199.49 291.375C1198.61 292.052 1197.54 292.577 1196.29 292.949C1195.05 293.322 1193.66 293.508 1192.12 293.508C1189.8 293.508 1187.84 293.127 1186.23 292.365C1184.64 291.587 1183.43 290.571 1182.6 289.318C1181.79 288.049 1181.38 286.703 1181.38 285.281H1184.4C1184.51 286.703 1184.95 287.829 1185.75 288.658C1186.55 289.471 1187.52 290.046 1188.67 290.385C1189.84 290.723 1190.99 290.893 1192.12 290.893C1193.68 290.893 1194.98 290.664 1196.03 290.207C1197.08 289.75 1197.88 289.149 1198.42 288.404C1198.96 287.66 1199.23 286.855 1199.23 285.992ZM1212.51 265.527V293H1209.49V265.527H1212.51ZM1208.96 257.58C1208.96 257.005 1209.13 256.522 1209.49 256.133C1209.86 255.727 1210.37 255.523 1211.01 255.523C1211.66 255.523 1212.16 255.727 1212.54 256.133C1212.93 256.522 1213.12 257.005 1213.12 257.58C1213.12 258.139 1212.93 258.621 1212.54 259.027C1212.16 259.417 1211.66 259.611 1211.01 259.611C1210.37 259.611 1209.86 259.417 1209.49 259.027C1209.13 258.621 1208.96 258.139 1208.96 257.58ZM1223.68 271.215V293H1220.64V265.527H1223.56L1223.68 271.215ZM1223.12 277.562L1221.65 276.801C1221.75 275.176 1222.06 273.652 1222.57 272.23C1223.09 270.809 1223.82 269.556 1224.75 268.473C1225.68 267.389 1226.8 266.543 1228.1 265.934C1229.4 265.324 1230.89 265.02 1232.54 265.02C1233.88 265.02 1235.09 265.206 1236.18 265.578C1237.28 265.934 1238.21 266.501 1238.97 267.279C1239.75 268.041 1240.35 269.04 1240.77 270.275C1241.19 271.511 1241.41 272.992 1241.41 274.719V293H1238.38V274.82C1238.38 272.992 1238.1 271.562 1237.52 270.529C1236.96 269.497 1236.18 268.76 1235.16 268.32C1234.16 267.88 1233 267.66 1231.68 267.66C1230.12 267.66 1228.8 267.982 1227.72 268.625C1226.65 269.251 1225.78 270.072 1225.11 271.088C1224.45 272.087 1223.95 273.161 1223.63 274.312C1223.31 275.447 1223.14 276.53 1223.12 277.562ZM1241.38 275.176L1239.35 275.227C1239.43 273.889 1239.74 272.611 1240.26 271.393C1240.81 270.174 1241.54 269.09 1242.47 268.143C1243.4 267.178 1244.51 266.416 1245.8 265.857C1247.1 265.299 1248.57 265.02 1250.19 265.02C1251.61 265.02 1252.88 265.214 1254 265.604C1255.12 265.976 1256.06 266.577 1256.82 267.406C1257.6 268.219 1258.19 269.26 1258.6 270.529C1259 271.799 1259.21 273.322 1259.21 275.1V293H1256.16V275.074C1256.16 273.128 1255.87 271.621 1255.29 270.555C1254.74 269.471 1253.96 268.718 1252.96 268.295C1251.96 267.872 1250.79 267.66 1249.46 267.66C1248.13 267.677 1246.98 267.923 1245.98 268.396C1244.98 268.854 1244.14 269.463 1243.46 270.225C1242.8 270.969 1242.29 271.773 1241.94 272.637C1241.6 273.5 1241.41 274.346 1241.38 275.176ZM1270.3 265.527V293H1267.28V265.527H1270.3ZM1266.75 257.58C1266.75 257.005 1266.92 256.522 1267.28 256.133C1267.65 255.727 1268.16 255.523 1268.8 255.523C1269.45 255.523 1269.95 255.727 1270.33 256.133C1270.72 256.522 1270.91 257.005 1270.91 257.58C1270.91 258.139 1270.72 258.621 1270.33 259.027C1269.95 259.417 1269.45 259.611 1268.8 259.611C1268.16 259.611 1267.65 259.417 1267.28 259.027C1266.92 258.621 1266.75 258.139 1266.75 257.58ZM1281.98 254V293H1278.96V254H1281.98ZM1306.99 288.074V273.906C1306.99 272.603 1306.72 271.477 1306.18 270.529C1305.64 269.581 1304.84 268.854 1303.79 268.346C1302.74 267.838 1301.45 267.584 1299.91 267.584C1298.48 267.584 1297.21 267.838 1296.1 268.346C1295 268.837 1294.13 269.505 1293.48 270.352C1292.86 271.181 1292.54 272.104 1292.54 273.119L1289.5 273.094C1289.5 272.061 1289.75 271.062 1290.26 270.098C1290.77 269.133 1291.49 268.27 1292.42 267.508C1293.35 266.746 1294.46 266.145 1295.74 265.705C1297.05 265.248 1298.48 265.02 1300.03 265.02C1302 265.02 1303.72 265.35 1305.21 266.01C1306.72 266.67 1307.9 267.66 1308.74 268.98C1309.59 270.301 1310.01 271.96 1310.01 273.957V287.236C1310.01 288.184 1310.08 289.166 1310.21 290.182C1310.37 291.197 1310.58 292.035 1310.85 292.695V293H1307.62C1307.42 292.391 1307.26 291.629 1307.14 290.715C1307.04 289.784 1306.99 288.904 1306.99 288.074ZM1307.7 277.004L1307.75 279.34H1301.79C1300.23 279.34 1298.83 279.484 1297.6 279.771C1296.38 280.042 1295.34 280.449 1294.5 280.99C1293.65 281.515 1293 282.15 1292.54 282.895C1292.1 283.639 1291.88 284.486 1291.88 285.434C1291.88 286.415 1292.13 287.312 1292.62 288.125C1293.13 288.938 1293.84 289.589 1294.75 290.08C1295.68 290.554 1296.78 290.791 1298.05 290.791C1299.75 290.791 1301.24 290.478 1302.52 289.852C1303.82 289.225 1304.9 288.404 1305.75 287.389C1306.59 286.373 1307.16 285.264 1307.45 284.062L1308.77 285.814C1308.55 286.661 1308.14 287.533 1307.55 288.43C1306.97 289.31 1306.22 290.139 1305.29 290.918C1304.36 291.68 1303.26 292.306 1301.99 292.797C1300.74 293.271 1299.31 293.508 1297.72 293.508C1295.93 293.508 1294.36 293.169 1293.03 292.492C1291.71 291.815 1290.67 290.893 1289.93 289.725C1289.2 288.54 1288.84 287.202 1288.84 285.713C1288.84 284.359 1289.12 283.148 1289.7 282.082C1290.27 280.999 1291.1 280.085 1292.19 279.34C1293.29 278.578 1294.61 278.003 1296.15 277.613C1297.71 277.207 1299.45 277.004 1301.38 277.004H1307.7ZM1328.55 265.527V268.016H1314.79V265.527H1328.55ZM1319.84 258.469H1322.86V286.322C1322.86 287.592 1323.03 288.548 1323.37 289.191C1323.71 289.835 1324.15 290.266 1324.69 290.486C1325.23 290.706 1325.81 290.816 1326.44 290.816C1326.9 290.816 1327.34 290.791 1327.76 290.74C1328.18 290.673 1328.56 290.605 1328.9 290.537L1329.03 293.102C1328.66 293.22 1328.17 293.313 1327.58 293.381C1326.99 293.465 1326.4 293.508 1325.8 293.508C1324.64 293.508 1323.6 293.296 1322.71 292.873C1321.81 292.433 1321.11 291.688 1320.6 290.639C1320.09 289.572 1319.84 288.125 1319.84 286.297V258.469ZM1338.3 265.527V293H1335.28V265.527H1338.3ZM1334.74 257.58C1334.74 257.005 1334.92 256.522 1335.28 256.133C1335.65 255.727 1336.16 255.523 1336.8 255.523C1337.44 255.523 1337.95 255.727 1338.32 256.133C1338.71 256.522 1338.91 257.005 1338.91 257.58C1338.91 258.139 1338.71 258.621 1338.32 259.027C1337.95 259.417 1337.44 259.611 1336.8 259.611C1336.16 259.611 1335.65 259.417 1335.28 259.027C1334.92 258.621 1334.74 258.139 1334.74 257.58ZM1344.92 279.695V278.857C1344.92 276.86 1345.21 275.015 1345.79 273.322C1346.36 271.63 1347.18 270.165 1348.25 268.93C1349.33 267.694 1350.63 266.738 1352.13 266.061C1353.64 265.367 1355.32 265.02 1357.16 265.02C1359.02 265.02 1360.71 265.367 1362.21 266.061C1363.72 266.738 1365.02 267.694 1366.1 268.93C1367.18 270.165 1368.01 271.63 1368.59 273.322C1369.16 275.015 1369.45 276.86 1369.45 278.857V279.695C1369.45 281.693 1369.16 283.538 1368.59 285.23C1368.01 286.906 1367.18 288.362 1366.1 289.598C1365.03 290.833 1363.75 291.798 1362.24 292.492C1360.73 293.169 1359.06 293.508 1357.21 293.508C1355.35 293.508 1353.67 293.169 1352.16 292.492C1350.65 291.798 1349.36 290.833 1348.28 289.598C1347.19 288.362 1346.36 286.906 1345.79 285.23C1345.21 283.538 1344.92 281.693 1344.92 279.695ZM1347.95 278.857V279.695C1347.95 281.202 1348.15 282.632 1348.55 283.986C1348.96 285.324 1349.55 286.517 1350.33 287.566C1351.11 288.599 1352.08 289.411 1353.23 290.004C1354.38 290.596 1355.71 290.893 1357.21 290.893C1358.7 290.893 1360.01 290.596 1361.15 290.004C1362.3 289.411 1363.26 288.599 1364.04 287.566C1364.82 286.517 1365.41 285.324 1365.79 283.986C1366.2 282.632 1366.4 281.202 1366.4 279.695V278.857C1366.4 277.368 1366.2 275.954 1365.79 274.617C1365.41 273.28 1364.81 272.087 1364.02 271.037C1363.24 269.988 1362.27 269.158 1361.12 268.549C1359.97 267.939 1358.65 267.635 1357.16 267.635C1355.67 267.635 1354.35 267.939 1353.2 268.549C1352.07 269.158 1351.1 269.988 1350.31 271.037C1349.53 272.087 1348.94 273.28 1348.53 274.617C1348.14 275.954 1347.95 277.368 1347.95 278.857ZM1378.77 271.393V293H1375.75V265.527H1378.64L1378.77 271.393ZM1378.08 277.562L1376.74 276.801C1376.84 275.176 1377.17 273.652 1377.73 272.23C1378.29 270.809 1379.04 269.556 1379.99 268.473C1380.95 267.389 1382.08 266.543 1383.37 265.934C1384.67 265.324 1386.11 265.02 1387.68 265.02C1389.05 265.02 1390.28 265.206 1391.36 265.578C1392.45 265.951 1393.37 266.543 1394.13 267.355C1394.89 268.168 1395.47 269.209 1395.86 270.479C1396.26 271.748 1396.47 273.297 1396.47 275.125V293H1393.42V275.1C1393.42 273.204 1393.16 271.723 1392.63 270.656C1392.11 269.573 1391.36 268.803 1390.4 268.346C1389.43 267.889 1388.29 267.66 1386.97 267.66C1385.51 267.66 1384.24 267.982 1383.14 268.625C1382.05 269.251 1381.14 270.072 1380.39 271.088C1379.67 272.087 1379.11 273.161 1378.72 274.312C1378.33 275.447 1378.12 276.53 1378.08 277.562Z" fill="black"/>
<path d="M367 259.5C322.5 256 318 234 265.5 228.5C233.5 225.148 209 226.5 172.5 238.5C162.451 241.804 149.606 248.716 138.5 255" stroke="black" stroke-width="5"/>
<path d="M29 256C31.5 261.5 39 280.5 48 285.5C70.659 297.01 107.42 273.471 139.5 255" stroke="black" stroke-width="8"/>
<path d="M52 286.5C54.5 292 67.5 322.143 81 329C113.5 345.508 155.5 343 205.5 322.5C229.058 312.841 283 322.5 308 314C367.919 293.628 324.5 218.5 361 202.5" stroke="black" stroke-width="10"/>
<path d="M171 152.5C171.193 142.279 168.803 138.464 160.5 132.5C152.197 126.536 125.5 154 124 164.5C133.5 152 141.486 153.5 144.5 158.5C147.721 163.844 140.681 168.154 138.5 174C136.383 179.674 136.5 186 133 188C129.5 190 124.826 189.9 121.5 186C116.428 180.054 120.5 172 124 164.5C120.5 172 109.93 179.145 108 192C106.622 201.176 108.768 212 114 218.5C119.232 225 144.733 229.123 157 216C167.31 204.971 155.34 191.688 160.5 177.5C163.877 168.214 170.814 162.38 171 152.5Z" fill="black"/>
<path d="M124 164.5C125.5 154 152.197 126.536 160.5 132.5C168.803 138.464 171.193 142.279 171 152.5C170.814 162.38 163.877 168.214 160.5 177.5C155.34 191.688 167.31 204.971 157 216C144.733 229.123 119.232 225 114 218.5C108.768 212 106.622 201.176 108 192C109.93 179.145 120.5 172 124 164.5ZM124 164.5C133.5 152 141.486 153.5 144.5 158.5C147.721 163.844 140.681 168.154 138.5 174C136.383 179.674 136.5 186 133 188C129.5 190 124.826 189.9 121.5 186C116.428 180.054 120.5 172 124 164.5Z" stroke="black" stroke-width="7"/>
<path d="M32.5 228.5C55.8407 228.274 70.4886 222.219 89 208C104.362 196.201 117.511 170.452 128.5 154.5C139 139.258 159 127.595 178.5 122.5C228.5 109.437 278.5 128 323 131.5C344.58 133.197 362 123 376.5 114.5" stroke="black" stroke-width="8"/>
<path d="M284.5 89.5C320.038 99.8489 373 115 375.5 116C378 117 393.513 97.3043 397.5 82C405.179 52.5229 394.541 24.0234 367.5 10C327.656 -10.6632 300.5 52.5 284.5 89.5Z" fill="black"/>
<path d="M35.5 226C52.1667 224.172 77.9301 207.602 96.5 183.5C118.676 154.717 125.277 125.34 158.5 104.5C194.37 82 246 78.2885 284.5 89.5M284.5 89.5C320.038 99.8489 373 115 375.5 116C378 117 393.513 97.3043 397.5 82C405.179 52.5229 394.541 24.0234 367.5 10C327.656 -10.6632 300.5 52.5 284.5 89.5Z" stroke="black" stroke-width="6"/>
<path d="M20 214C20 214 41.6943 221 39.4999 227.857C36.2999 237.857 33.5 265.592 28.4999 264.357C23.4999 263.123 12.5 215.5 20 214Z" fill="black" stroke="black"/>
<path d="M231.5 69C253 69 279.5 58 293.5 45.5C298.053 41.4351 300 30 296.5 19C292 4.85865 271.5 7.5 258.5 19C245.5 30.5 235.5 48.5 231.5 69Z" fill="black"/>
<path d="M22.5 217.5C22.5 217.5 38.7771 200.659 53.5 192C66.2737 184.487 73.9482 183.286 85 174C95.9052 164.837 105 143.5 105 143.5C105 143.5 129.371 98.8816 156 83.5C181.998 68.483 220.5 69 231.5 69M231.5 69C253 69 279.5 58 293.5 45.5C298.053 41.4351 300 30 296.5 19C292 4.85865 271.5 7.5 258.5 19C245.5 30.5 235.5 48.5 231.5 69Z" stroke="black" stroke-width="10"/>
<path d="M37.5 232C82.9961 228.681 127.5 237.5 153.5 221C189.639 198.066 202.262 172.401 245 156C288.303 139.382 325 143.5 365 143.5" stroke="black" stroke-width="6"/>
<path d="M33 241C54.5 222 172 350.5 247.5 307C287.539 283.931 293.5 208 319 173.5C333.413 154 348.5 151 359 151" stroke="black" stroke-width="6"/>
<path d="M35 240C86.5 229.5 158.5 274.5 223.5 258C288.5 241.5 302.5 193 371 173" stroke="black" stroke-width="6"/>
</svg>
